<?xml version='1.0' encoding='utf-8'?>
<svg xmlns="http://www.w3.org/2000/svg" enable-background="new 0 0 595.28 841.89" version="1.1" viewBox="0 0 595.28 841.89">
<linearGradient id="g" x1="159.29" x2="370.22" y1="278.25" y2="278.25" gradientTransform="matrix(.9518 -.3066 .3066 .9518 -115.21 108.42)" gradientUnits="userSpaceOnUse">
	<stop stop-color="#4775B8" offset="0"/>
	<stop stop-color="#2D2D5D" offset=".5"/>
	<stop stop-color="#4775B8" offset="1"/>
</linearGradient>
<path d="m116.27 307.51c34.599-39.741 155.33-78.179 200.78-64.636l-40.77 71.715-94.677 26.238-65.335-33.317z" fill="url(#g)"/>
<linearGradient id="f" x1="141.43" x2="201.01" y1="327.98" y2="462.15" gradientTransform="matrix(.9518 -.3066 .3066 .9518 -115.21 108.42)" gradientUnits="userSpaceOnUse">
	<stop stop-color="#4775B8" offset="0"/>
	<stop stop-color="#2D2D5D" offset=".5"/>
	<stop stop-color="#4775B8" offset="1"/>
</linearGradient>
<polygon points="76.261 382.88 295.05 518.56 176 386.57" fill="url(#f)"/>
<linearGradient id="e" x1="264.76" x2="431.42" y1="418.08" y2="418.08" gradientTransform="matrix(.9518 -.3066 .3066 .9518 -115.21 108.42)" gradientUnits="userSpaceOnUse">
	<stop stop-color="#4775B8" offset="0"/>
	<stop stop-color="#2D2D5D" offset=".5"/>
	<stop stop-color="#4775B8" offset="1"/>
</linearGradient>
<polygon points="305.81 364.34 393.53 280.73 295.05 518.56" fill="url(#e)"/>
<linearGradient id="d" x1="206.34" x2="276.93" y1="560.59" y2="331.18" gradientUnits="userSpaceOnUse">
	<stop stop-color="#4775B8" offset="0"/>
	<stop stop-color="#2D2D5D" offset=".5"/>
	<stop stop-color="#4775B8" offset="1"/>
</linearGradient>
<polygon points="182.05 393.28 314.16 353.88 295.05 518.56" fill="url(#d)"/>
<linearGradient id="c" x1="267.73" x2="264.51" y1="288.24" y2="376.33" gradientTransform="matrix(.9518 -.3066 .3066 .9518 -115.21 108.42)" gradientUnits="userSpaceOnUse">
	<stop stop-color="#4775B8" offset="0"/>
	<stop stop-color="#2D2D5D" offset=".5"/>
	<stop stop-color="#4775B8" offset="1"/>
</linearGradient>
<polygon points="180.36 327.18 278.48 295.57 313.27 358.71 186.95 399.36" fill="url(#c)"/>
<linearGradient id="b" x1="209.93" x2="111.88" y1="329.7" y2="283.4" gradientTransform="matrix(.9518 -.3066 .3066 .9518 -115.21 108.42)" gradientUnits="userSpaceOnUse">
	<stop stop-color="#4775B8" offset="0"/>
	<stop stop-color="#2D2D5D" offset=".5"/>
	<stop stop-color="#4775B8" offset="1"/>
</linearGradient>
<path d="m76.261 382.88c8.88-25.811 22.575-50.28 40.009-75.373l66.946 18.742 3.73 73.103-110.68-16.472z" fill="url(#b)"/>
<linearGradient id="a" x1="312.25" x2="431.42" y1="315.06" y2="315.06" gradientTransform="matrix(.9518 -.3066 .3066 .9518 -115.21 108.42)" gradientUnits="userSpaceOnUse">
	<stop stop-color="#4775B8" offset="0"/>
	<stop stop-color="#2D2D5D" offset=".5"/>
	<stop stop-color="#4775B8" offset="1"/>
</linearGradient>
<path d="m393.53 280.73c-22.276-15.775-47.678-27.651-76.479-37.85l-43.421 54.292 39.639 61.538 80.261-77.98z" fill="url(#a)"/>
<linearGradient id="n" x1="267.5" x2="361.83" y1="741.78" y2="741.78" gradientTransform="matrix(.6298 .7767 -.7767 .6298 835.73 -267.97)" gradientUnits="userSpaceOnUse">
	<stop stop-color="#272526" offset="0"/>
	<stop stop-color="#5A5A5C" offset=".5"/>
	<stop stop-color="#272526" offset="1"/>
</linearGradient>
<path d="m434.23 401.99c22.164 8.005 57.704 52.138 59.401 73.283l-36.494-5.412-26.242-35.24 3.335-32.631z" fill="url(#n)"/>
<linearGradient id="m" x1="259.5" x2="286.15" y1="764.02" y2="824.02" gradientTransform="matrix(.6298 .7767 -.7767 .6298 835.73 -267.97)" gradientUnits="userSpaceOnUse">
	<stop stop-color="#272526" offset="0"/>
	<stop stop-color="#5A5A5C" offset=".5"/>
	<stop stop-color="#272526" offset="1"/>
</linearGradient>
<polygon points="396.33 397.49 375.11 510.65 410.91 439.68" fill="url(#m)"/>
<linearGradient id="l" x1="314.66" x2="389.2" y1="804.31" y2="804.31" gradientTransform="matrix(.6298 .7767 -.7767 .6298 835.73 -267.97)" gradientUnits="userSpaceOnUse">
	<stop stop-color="#272526" offset="0"/>
	<stop stop-color="#5A5A5C" offset=".5"/>
	<stop stop-color="#272526" offset="1"/>
</linearGradient>
<polygon points="441.16 490.22 490.2 513.28 375.11 510.65" fill="url(#l)"/>
<linearGradient id="k" x1="283.74" x2="345.38" y1="813.77" y2="813.77" gradientTransform="matrix(.6298 .7767 -.7767 .6298 835.73 -267.97)" gradientUnits="userSpaceOnUse">
	<stop stop-color="#272526" offset="0"/>
	<stop stop-color="#434244" offset=".5"/>
	<stop stop-color="#272526" offset="1"/>
</linearGradient>
<polygon points="409.09 443.29 446.87 492.01 375.11 510.65" fill="url(#k)"/>
<linearGradient id="j" x1="315.99" x2="314.55" y1="746.24" y2="785.64" gradientTransform="matrix(.6298 .7767 -.7767 .6298 835.73 -267.97)" gradientUnits="userSpaceOnUse">
	<stop stop-color="#272526" offset="0"/>
	<stop stop-color="#6D6E71" offset=".5"/>
	<stop stop-color="#272526" offset="1"/>
</linearGradient>
<polygon points="436.38 431.9 465.42 467.71 444.72 492.42 407.35 446.31" fill="url(#j)"/>
<linearGradient id="i" x1="290.14" x2="246.29" y1="764.79" y2="744.08" gradientTransform="matrix(.6298 .7767 -.7767 .6298 835.73 -267.97)" gradientUnits="userSpaceOnUse">
	<stop stop-color="#272526" offset="0"/>
	<stop stop-color="#6D6E71" offset=".5"/>
	<stop stop-color="#272526" offset="1"/>
</linearGradient>
<path d="m396.33 397.49c12.198-0.47 24.615 1.287 37.897 4.502l3.004 30.947-29.882 13.369-11.019-48.818z" fill="url(#i)"/>
<linearGradient id="h" x1="335.9" x2="389.2" y1="758.24" y2="758.24" gradientTransform="matrix(.6298 .7767 -.7767 .6298 835.73 -267.97)" gradientUnits="userSpaceOnUse">
	<stop stop-color="#272526" offset="0"/>
	<stop stop-color="#6D6E71" offset=".5"/>
	<stop stop-color="#272526" offset="1"/>
</linearGradient>
<path d="m490.2 513.28c2.979-11.838 3.825-24.35 3.423-38.008l-29.656-9.332-19.256 26.475 45.489 20.865z" fill="url(#h)"/>
</svg>